<svg width="492" height="357" viewBox="0 0 492 357" fill="none" xmlns="http://www.w3.org/2000/svg">
<g clip-path="url(#clip0)">
<path d="M198.422 26.5262L190.995 31.2846L195.503 23.0045C194.226 21.9764 192.647 21.407 191.014 21.3862H190.894C190.378 21.3956 189.862 21.3584 189.353 21.2751L186.836 22.8838L187.912 20.9031C186.128 20.273 184.587 19.0894 183.509 17.5215L179.006 20.42L181.868 15.1882C179.235 11.9998 175.684 10.0385 171.774 10.0385C167.089 10.0385 162.915 12.8549 160.221 17.2365C159.424 18.5521 158.295 19.6302 156.949 20.3603C155.604 21.0903 154.09 21.446 152.563 21.391H152.314C147.141 21.391 142.948 27.3136 142.948 34.6131C142.948 41.9125 147.141 47.8351 152.314 47.8351C153.45 47.8308 154.569 47.5491 155.573 47.0139C158.948 45.2409 163.379 45.2071 166.912 46.7868C168.428 47.47 170.07 47.823 171.731 47.823C173.392 47.823 175.034 47.47 176.551 46.7868C178.329 46.0088 180.252 45.6255 182.19 45.663C184.128 45.7006 186.036 46.1579 187.783 47.0042C188.781 47.5297 189.889 47.8063 191.014 47.8109C196.187 47.8109 200.38 41.8932 200.38 34.5889C200.406 31.7784 199.733 29.0061 198.422 26.5262Z" fill="#F2F2F2"/>
<path opacity="0.03" d="M184.423 45.8738C181.721 45.3562 178.926 45.664 176.397 46.7578C174.882 47.4408 173.24 47.7939 171.58 47.7939C169.92 47.7939 168.279 47.4408 166.763 46.7578C164.97 45.964 163.028 45.5727 161.07 45.6111C159.112 45.6495 157.186 46.1165 155.425 46.98C154.421 47.5189 153.303 47.8025 152.166 47.8061C147.567 47.8061 143.747 43.1347 142.948 36.9705C143.866 36.2936 144.647 35.4439 145.245 34.4681C147.94 30.0865 152.113 27.275 156.799 27.275C161.484 27.275 165.61 30.0527 168.285 34.3908C169.089 35.6997 170.214 36.777 171.551 37.5184C172.889 38.2597 174.393 38.6401 175.919 38.6227H176.038C179.714 38.5985 182.882 41.5598 184.423 45.8738Z" fill="black"/>
<path d="M135.027 232.494L132.017 230.606C131.73 230.427 131.447 230.234 131.16 230.05C137.567 228.938 143.409 225.659 147.725 220.752C152.042 215.845 154.577 209.603 154.913 203.049C155.25 196.496 153.369 190.022 149.579 184.691C145.788 179.36 140.314 175.488 134.056 173.713L134.204 185.626L127.719 172.664H127.638C120.049 172.309 112.631 175.01 107.014 180.173C101.398 185.337 98.0429 192.54 97.6869 200.2C97.6582 200.756 97.6869 201.297 97.6869 201.843C95.4327 199.244 93.3795 196.456 92.0251 193.403C89.2827 187.225 89.2301 180.225 89.4454 171.713C89.8762 154.853 90.5989 137.858 91.5369 120.921C98.3089 120.16 104.59 116.987 109.253 111.972C113.916 106.958 116.656 100.429 116.979 93.5591C117.018 92.6751 117.003 91.8055 116.979 90.936C116.979 90.7186 116.979 90.506 116.946 90.2886C116.888 89.4481 116.812 88.6172 116.682 87.7959C116.682 87.6606 116.635 87.5302 116.611 87.3998C116.496 86.7042 116.352 86.0182 116.19 85.3418C116.127 85.0858 116.065 84.8346 115.998 84.5834C115.797 83.8443 115.577 83.1341 115.319 82.3999C115.232 82.1631 115.132 81.9168 115.041 81.6945C114.84 81.168 114.62 80.6463 114.385 80.1342C114.261 79.8637 114.141 79.5931 114.012 79.3274C113.974 79.2598 113.95 79.1873 113.911 79.1197C110.886 73.0929 105.866 68.326 99.7211 65.6467C93.5765 62.9675 86.6964 62.5452 80.2755 64.4532L80.4669 79.9603L74.0537 67.1488C68.7804 70.1926 64.6081 74.8569 62.145 80.4618C59.682 86.0668 59.0569 92.3192 60.3609 98.3079H60.3322C60.3753 98.5156 60.4375 98.7137 60.4854 98.9165C60.5763 99.2982 60.672 99.675 60.7773 100.052C60.9113 100.535 61.0645 101.018 61.2224 101.501C61.3421 101.859 61.4569 102.211 61.5909 102.564C61.7872 103.076 62.0073 103.573 62.2275 104.071C62.3567 104.361 62.4716 104.66 62.6104 104.945C62.9741 105.693 63.3697 106.422 63.7973 107.134C63.9457 107.385 64.1132 107.617 64.2759 107.863C64.5822 108.346 64.8885 108.829 65.2331 109.279C65.4389 109.564 65.659 109.839 65.8744 110.114C66.1903 110.515 66.5109 110.912 66.8316 111.293C67.0661 111.569 67.3102 111.834 67.5543 112.095C67.9085 112.472 68.2674 112.834 68.6407 113.187C68.8896 113.424 69.1193 113.67 69.3921 113.892C69.8133 114.274 70.2536 114.631 70.6987 114.984C70.9236 115.163 71.1438 115.346 71.3735 115.52C72.0531 116.003 72.7519 116.486 73.4746 116.969C73.6086 117.052 73.7569 117.119 73.8909 117.201C74.4988 117.559 75.1114 117.902 75.7431 118.211C76.0159 118.346 76.2935 118.467 76.5711 118.593C77.088 118.824 77.6097 119.052 78.1457 119.259L79.1029 119.597C79.6294 119.776 80.1654 119.945 80.7062 120.081C81.0221 120.167 81.3427 120.259 81.6634 120.337C82.2473 120.477 82.8455 120.593 83.4486 120.699L83.5634 120.723C83.171 127.869 82.82 135.018 82.5105 142.167C80.8036 138.627 78.3979 135.476 75.4411 132.907C72.4844 130.339 69.0388 128.407 65.316 127.231C61.5932 126.055 57.6715 125.659 53.7916 126.068C49.9117 126.476 46.1555 127.681 42.7533 129.607L47.8169 143.616L37.3978 133.52C31.812 138.675 28.4827 145.859 28.1417 153.491C28.0087 156.167 28.2536 158.85 28.8691 161.457C30.1824 167.094 33.1425 172.202 37.366 176.121C41.5894 180.04 46.8815 182.588 52.5565 183.436C58.2315 184.283 64.0279 183.391 69.1946 180.874C74.3613 178.358 78.6602 174.333 81.5342 169.321C81.5342 170.046 81.4863 170.771 81.4672 171.5C81.2757 179.007 81.0364 188.35 84.7456 196.693C87.2582 202.345 91.2976 206.939 95.2748 211.055C97.8736 213.731 100.568 216.326 103.33 218.833C106.048 222.517 109.595 225.497 113.677 227.528C118.214 231.055 122.914 234.374 127.772 237.436L130.806 239.34C133.534 241.045 136.329 242.799 139.067 244.62C138.588 244.572 138.109 244.518 137.631 244.494C131.557 244.209 125.551 245.88 120.48 249.267C115.409 252.654 111.536 257.58 109.422 263.335L127.331 278.016L107.642 273.407C107.647 278.297 108.88 283.106 111.226 287.385C113.572 291.663 116.954 295.272 121.056 297.873C125.158 300.475 129.847 301.984 134.684 302.261C139.521 302.538 144.348 301.572 148.715 299.455L147.409 301.122C146.528 302.226 145.658 303.324 144.8 304.416C133.151 319.31 129.911 333.445 135.678 344.222L142.694 340.401C137.056 329.909 145.494 316.479 151.032 309.416C151.874 308.344 152.729 307.265 153.597 306.179C161.039 296.846 169.472 286.267 169.266 273.291C168.946 253.721 150.141 241.953 135.027 232.494Z" fill="#F2F2F2"/>
<path d="M264.699 211.113L268.451 208.756C268.81 208.529 269.159 208.273 269.518 208.06C261.494 206.667 254.181 202.551 248.789 196.392C243.398 190.233 240.251 182.401 239.869 174.191C239.598 168.547 240.655 162.918 242.956 157.766C245.102 152.94 248.272 148.648 252.241 145.194C256.211 141.74 260.883 139.207 265.929 137.776L265.742 152.64L273.816 136.472H273.912C283.382 136.027 292.639 139.397 299.648 145.841C306.657 152.285 310.843 161.275 311.286 170.833C311.319 171.524 311.286 172.201 311.286 172.882C314.105 169.64 316.66 166.162 318.35 162.355C321.777 154.626 321.844 145.93 321.571 135.303C321.035 114.264 320.135 93.0664 318.962 71.9362C310.513 70.9873 302.676 67.0287 296.858 60.7714C291.041 54.5141 287.624 46.3681 287.222 37.7966C287.174 36.6952 287.188 35.6082 287.222 34.5261C287.222 34.2556 287.236 33.985 287.265 33.7145C287.332 32.6662 287.432 31.6276 287.586 30.6083C287.609 30.4392 287.648 30.275 287.676 30.1252C287.823 29.2556 288 28.399 288.208 27.5552C288.284 27.2412 288.361 26.9223 288.442 26.589C288.696 25.6711 288.969 24.7581 289.289 23.8692C289.395 23.5697 289.519 23.2847 289.634 22.99C289.892 22.3282 290.165 21.6809 290.457 21.0577C290.61 20.7244 290.759 20.3862 290.936 20.0529C290.974 19.9707 291.012 19.879 291.055 19.7968C294.826 12.2749 301.089 6.32519 308.756 2.98266C316.424 -0.359869 325.009 -0.883663 333.019 1.50239L332.78 20.8258L340.782 4.84534C347.36 8.64234 352.565 14.4622 355.635 21.4555C358.705 28.4488 359.481 36.2495 357.849 43.7192H357.887C357.834 43.9753 357.753 44.2023 357.696 44.4777C357.581 44.9608 357.461 45.4438 357.332 45.8931C357.164 46.497 356.973 47.0863 356.777 47.6757C356.628 48.1201 356.485 48.5646 356.298 49.0042C356.054 49.6419 355.781 50.265 355.504 50.8834C355.341 51.2457 355.197 51.6177 355.025 51.9751C354.546 52.9075 354.068 53.8205 353.546 54.7046C353.364 55.0186 353.154 55.3133 352.957 55.6176C352.574 56.2166 352.187 56.806 351.77 57.3809C351.512 57.7384 351.239 58.0765 350.971 58.4243C350.579 58.9074 350.181 59.4195 349.76 59.8978C349.467 60.2198 349.165 60.5531 348.856 60.8977C348.42 61.3808 347.966 61.8156 347.506 62.26C347.195 62.5547 346.889 62.8542 346.549 63.1392C346.018 63.6223 345.472 64.0571 344.912 64.4967C344.635 64.7189 344.362 64.9556 344.075 65.1682C343.227 65.7962 342.356 66.3952 341.452 66.9508C341.284 67.0522 341.102 67.1392 340.93 67.2406C340.18 67.6915 339.411 68.1118 338.623 68.5015C338.284 68.6706 337.934 68.8155 337.59 68.9846C336.943 69.2793 336.293 69.5595 335.627 69.8155C335.235 69.9652 334.842 70.1053 334.45 70.2406C333.789 70.4676 333.124 70.6705 332.449 70.859C332.052 70.9701 331.655 71.0812 331.248 71.1826C330.516 71.3565 329.774 71.5015 329.023 71.6319L328.874 71.6609C329.372 80.5786 329.811 89.498 330.19 98.419C332.32 94.0021 335.322 90.0712 339.012 86.8676C342.701 83.6641 347 81.2555 351.645 79.7898C356.291 78.324 361.183 77.832 366.024 78.344C370.864 78.856 375.549 80.3611 379.792 82.767L373.518 100.24L386.512 87.6462C393.482 94.0763 397.636 103.038 398.061 112.559C398.224 115.887 397.92 119.221 397.156 122.462C395.522 129.5 391.831 135.879 386.561 140.773C381.291 145.667 374.686 148.85 367.602 149.909C360.518 150.969 353.283 149.855 346.834 146.713C340.385 143.571 335.02 138.545 331.435 132.288C331.435 133.191 331.497 134.104 331.521 135.008C331.76 144.375 332.057 156.032 327.434 166.437C324.299 173.495 319.254 179.22 314.267 184.355C311.023 187.698 307.672 190.933 304.217 194.06C300.82 198.654 296.391 202.367 291.295 204.896C285.633 209.297 279.77 213.437 273.711 217.263L269.93 219.644C266.527 221.77 263.043 223.958 259.621 226.229C260.224 226.171 260.817 226.103 261.43 226.074C269.005 225.717 276.497 227.8 282.823 232.022C289.148 236.244 293.981 242.386 296.621 249.562L274.29 267.919L298.857 262.175C298.848 268.276 297.308 274.275 294.38 279.612C291.453 284.949 287.233 289.45 282.115 292.695C276.997 295.94 271.147 297.823 265.113 298.168C259.079 298.513 253.056 297.308 247.608 294.668C248.163 295.363 248.714 296.059 249.269 296.75C250.365 298.126 251.461 299.498 252.528 300.861C267.058 319.435 271.103 337.092 263.904 350.522L255.156 345.754C262.158 332.662 251.624 315.909 244.717 307.107C243.669 305.769 242.597 304.421 241.52 303.068C232.236 291.426 221.711 278.228 221.97 262.04C222.367 237.591 245.837 222.91 264.699 211.113Z" fill="#F2F2F2"/>
<path d="M420.526 90.9215V260.282C420.526 260.739 420.437 261.192 420.263 261.614C420.09 262.037 419.836 262.421 419.515 262.744C419.195 263.068 418.815 263.324 418.396 263.499C417.977 263.675 417.529 263.765 417.075 263.765H75.0731C74.6202 263.765 74.1717 263.674 73.7533 263.499C73.3349 263.324 72.9548 263.068 72.6348 262.744C72.3147 262.421 72.061 262.037 71.8881 261.614C71.7152 261.192 71.6266 260.739 71.6272 260.282V90.9215C71.6266 90.4643 71.7152 90.0115 71.8881 89.5889C72.061 89.1664 72.3147 88.7824 72.6348 88.4589C72.9548 88.1354 73.3349 87.8787 73.7533 87.7036C74.1717 87.5285 74.6202 87.4384 75.0731 87.4384H417.075C417.991 87.4384 418.868 87.8054 419.515 88.4586C420.163 89.1118 420.526 89.9977 420.526 90.9215Z" fill="url(#paint0_linear)"/>
<path d="M420.526 89.7621V97.5832H71.6272V89.7621C71.6272 89.1458 71.8697 88.5548 72.3014 88.119C72.7332 87.6832 73.3187 87.4384 73.9293 87.4384H418.224C418.835 87.4384 419.42 87.6832 419.852 88.119C420.284 88.5548 420.526 89.1458 420.526 89.7621Z" fill="#CBCEDA"/>
<path d="M79.2848 94.6847C80.6064 94.6847 81.6778 93.6033 81.6778 92.2693C81.6778 90.9353 80.6064 89.8539 79.2848 89.8539C77.9632 89.8539 76.8918 90.9353 76.8918 92.2693C76.8918 93.6033 77.9632 94.6847 79.2848 94.6847Z" fill="#C8A2C8"/>
<path d="M85.9852 94.6847C87.3068 94.6847 88.3782 93.6033 88.3782 92.2693C88.3782 90.9353 87.3068 89.8539 85.9852 89.8539C84.6636 89.8539 83.5922 90.9353 83.5922 92.2693C83.5922 93.6033 84.6636 94.6847 85.9852 94.6847Z" fill="#C8A2C8"/>
<path d="M92.6856 94.6847C94.0072 94.6847 95.0786 93.6033 95.0786 92.2693C95.0786 90.9353 94.0072 89.8539 92.6856 89.8539C91.3639 89.8539 90.2926 90.9353 90.2926 92.2693C90.2926 93.6033 91.3639 94.6847 92.6856 94.6847Z" fill="#C8A2C8"/>
<path opacity="0.2" d="M364.444 211.094V240.166L127.441 240.296L127.226 182.181C129.729 189.625 135.908 190.964 146.786 177.833C173.373 145.785 209.512 137.351 237.486 136.467C256.63 135.858 275.731 139.848 293.96 147.776C301.532 151.075 331.454 154.626 351.201 156.21C354.785 156.496 358.131 158.132 360.574 160.794C363.017 163.456 364.378 166.949 364.386 170.577L364.444 211.094Z" fill="#C8A2C8"/>
<path opacity="0.2" d="M364.444 182.664V240.441H127.226V227.881C134.008 226.156 159.374 219.524 171.535 201.205C186.084 179.273 205.86 173.505 221.161 172.901C231.647 172.481 242.085 175.201 252.05 180.63C263.258 186.737 284.867 194.104 301.283 172.717C319.441 149.07 347.334 168.558 354.408 175.722C356.935 178.254 364.444 182.664 364.444 182.664Z" fill="#C8A2C8"/>
<path d="M127.226 121.39V239.533H364.444" stroke="#C8A2C8" stroke-width="2" stroke-miterlimit="10"/>
<path d="M157.115 239.533V167.51" stroke="#C8A2C8" stroke-miterlimit="10"/>
<path d="M185.907 239.533V148.244" stroke="#C8A2C8" stroke-miterlimit="10"/>
<path d="M214.7 239.533V139.08" stroke="#C8A2C8" stroke-miterlimit="10"/>
<path d="M243.492 239.533V136.24" stroke="#C8A2C8" stroke-miterlimit="10"/>
<path d="M272.285 239.533V139.399" stroke="#C8A2C8" stroke-miterlimit="10"/>
<path d="M301.077 239.533V151.085" stroke="#C8A2C8" stroke-miterlimit="10"/>
<path d="M329.87 239.533V157.085" stroke="#C8A2C8" stroke-miterlimit="10"/>
<path d="M156.957 171.935C159.896 171.935 162.279 169.53 162.279 166.563C162.279 163.596 159.896 161.191 156.957 161.191C154.017 161.191 151.635 163.596 151.635 166.563C151.635 169.53 154.017 171.935 156.957 171.935Z" fill="#C8A2C8"/>
<path d="M185.749 153.616C188.688 153.616 191.071 151.211 191.071 148.244C191.071 145.278 188.688 142.872 185.749 142.872C182.81 142.872 180.427 145.278 180.427 148.244C180.427 151.211 182.81 153.616 185.749 153.616Z" fill="#C8A2C8"/>
<path d="M214.542 144.771C217.481 144.771 219.864 142.366 219.864 139.399C219.864 136.432 217.481 134.027 214.542 134.027C211.602 134.027 209.22 136.432 209.22 139.399C209.22 142.366 211.602 144.771 214.542 144.771Z" fill="#C8A2C8"/>
<path d="M243.329 141.612C246.269 141.612 248.651 139.207 248.651 136.24C248.651 133.273 246.269 130.868 243.329 130.868C240.39 130.868 238.007 133.273 238.007 136.24C238.007 139.207 240.39 141.612 243.329 141.612Z" fill="#C8A2C8"/>
<path d="M272.122 144.771C275.061 144.771 277.444 142.366 277.444 139.399C277.444 136.432 275.061 134.027 272.122 134.027C269.183 134.027 266.8 136.432 266.8 139.399C266.8 142.366 269.183 144.771 272.122 144.771Z" fill="#C8A2C8"/>
<path d="M300.914 156.771C303.854 156.771 306.237 154.366 306.237 151.399C306.237 148.432 303.854 146.027 300.914 146.027C297.975 146.027 295.592 148.432 295.592 151.399C295.592 154.366 297.975 156.771 300.914 156.771Z" fill="#C8A2C8"/>
<path d="M329.707 163.09C332.646 163.09 335.029 160.685 335.029 157.718C335.029 154.751 332.646 152.346 329.707 152.346C326.768 152.346 324.385 154.751 324.385 157.718C324.385 160.685 326.768 163.09 329.707 163.09Z" fill="#C8A2C8"/>
<path d="M246 357C381.862 357 492 352.458 492 346.855C492 341.252 381.862 336.71 246 336.71C110.138 336.71 2.86102e-05 341.252 2.86102e-05 346.855C2.86102e-05 352.458 110.138 357 246 357Z" fill="#3F3D56"/>
<path d="M27.5386 170.394C27.5194 170.812 27.3852 171.217 27.151 171.563C29.0654 171.505 30.7644 170.234 32.5304 169.631C32.2145 171.505 32.5304 173.727 32.7697 175.321C33.0005 176.868 33.3821 178.387 33.9088 179.857C35.1196 185.109 37.326 190.273 39.3026 195.316C40.1547 197.315 40.7964 199.399 41.217 201.534C42.5619 209.673 37.9099 217.548 37.0293 225.746C36.9622 226.197 36.9622 226.656 37.0293 227.108C36.9501 227.192 36.8795 227.285 36.8187 227.383C33.569 232.417 33.9901 240.842 34.574 246.803C35.1579 252.765 37.0293 258.513 38.7953 264.238C39.3214 265.816 39.7325 267.43 40.0253 269.069C40.3059 271.312 40.3508 273.579 40.1593 275.832C39.5754 286.32 38.1109 296.899 39.8386 307.233C41.0974 314.764 43.8445 321.614 44.146 329.242C44.3739 328.679 44.7355 328.181 45.1989 327.793L45.7158 347.826C45.692 348.013 45.7136 348.203 45.7786 348.38C45.8436 348.557 45.9502 348.715 46.0891 348.841C46.4577 349.077 46.9363 348.841 47.3718 348.778C48.6353 348.623 49.4441 350.01 50.2817 350.971C51.5404 352.42 53.4787 353.106 55.3788 353.256C57.2915 353.328 59.2055 353.153 61.0741 352.734C61.9499 352.575 62.8784 352.391 63.5341 351.768C63.8695 351.423 64.1197 351.003 64.2644 350.543C64.409 350.082 64.4441 349.593 64.3668 349.116C63.9935 346.164 60.8444 344.483 59.2602 341.966C57.3889 338.991 57.8244 335.005 55.9961 331.996C55.3692 330.967 54.5029 330.097 53.943 329.029C53.6605 328.372 53.4378 327.689 53.2777 326.991C53.8459 327.164 54.3849 327.423 54.8762 327.759C54.7039 326.194 54.5268 324.624 54.3545 323.054L54.278 322.377C54.0435 320.257 53.7994 318.141 53.6271 316.015C53.0384 309.02 55.0054 302.165 53.6271 295.281C53.3399 293.832 53.7994 292.32 54.2253 290.895C56.6452 282.776 58.1213 274.401 58.6237 265.938C58.7959 262.953 58.7912 260.074 59.7388 257.243C60.8491 261.808 64.2807 265.407 66.4392 269.595C67.7697 272.204 68.5977 275.054 70.0478 277.595C70.7466 278.832 71.5985 280.011 72.0436 281.354C72.7328 283.455 72.369 285.735 72.0436 287.928C70.4881 299.281 70.67 310.836 71.1677 322.286C70.695 326.666 69.697 330.973 68.1956 335.111C67.6022 336.744 66.9561 338.648 67.875 340.121C68.2625 340.661 68.7501 341.121 69.3108 341.474C70.6711 342.45 72.1012 343.324 73.5894 344.087C74.0315 344.38 74.563 344.504 75.0875 344.435C75.4128 344.321 75.7194 344.158 75.9968 343.952C77.1598 343.247 78.6626 343.358 79.9452 343.812C81.2279 344.266 82.3861 345.024 83.6305 345.57C86.2391 346.702 89.1506 346.91 91.8911 346.16C93.0493 345.836 94.2841 345.218 94.643 344.073C95.002 342.928 94.3415 341.72 93.4274 340.966C92.5133 340.213 91.3838 339.807 90.3356 339.256C88.0385 338.047 86.163 336.157 84.961 333.841C84.2387 332.313 83.6711 330.716 83.2667 329.073C82.7116 327.102 82.158 325.131 81.606 323.16C81.9212 323.369 82.2218 323.6 82.5058 323.851C83.2859 314.092 84.0756 304.305 86.1479 294.74C87.1386 290.165 88.4308 285.532 87.9283 280.88C87.6651 278.436 86.9089 276.074 86.191 273.721C83.9575 266.381 82.0016 258.964 80.3233 251.47C80.949 250.764 81.4362 249.944 81.7591 249.055C82.2977 247.4 82.5927 245.675 82.635 243.934C83.4378 232.192 83.4058 220.406 82.5393 208.669C82.3191 205.693 81.9745 202.567 80.8163 199.862H81.4959C80.6871 199.862 79.3661 191.756 79.2082 190.852C78.6674 187.722 78.2893 184.572 77.7293 181.447C77.4565 179.925 77.1502 178.403 76.7721 176.906C76.5137 175.911 75.4799 169.732 74.6567 169.041C74.5682 168.967 74.4679 168.908 74.36 168.867C73.9471 167.479 73.0425 166.292 71.8186 165.534C70.4929 164.78 68.9135 164.756 67.3677 164.877C66.9305 164.233 66.4934 163.597 66.0563 162.969C65.2531 161.928 64.639 160.752 64.2424 159.495C64.1186 158.969 64.0449 158.432 64.0223 157.892C64.0223 157.529 63.9983 157.167 63.984 156.805C63.984 156.621 63.984 156.442 63.984 156.259C63.9673 155.898 63.9289 155.538 63.8691 155.181C63.8212 154.887 63.7494 154.602 63.6729 154.312C63.6394 154.191 63.5963 154.066 63.558 153.945C63.3379 153.215 63.0794 152.496 62.888 151.761C62.2993 149.389 62.596 146.901 62.687 144.457C62.7779 142.013 62.62 139.423 61.2512 137.385C60.2509 135.887 58.6476 134.752 58.1115 133.037C57.8579 132.22 57.8722 131.322 57.4989 130.549C57.0141 129.69 56.2396 129.035 55.3165 128.704C54.2349 128.22 52.0621 127.583 50.8991 128.148C50.6811 128.257 50.4886 128.412 50.3343 128.602C49.1043 128.665 47.8647 128.834 46.7831 128.288C45.9503 127.868 45.3473 127.071 44.5385 126.612C42.6241 125.53 40.1832 126.612 38.4794 128.022C35.771 130.262 33.7918 133.271 32.7984 136.66C32.0422 139.273 31.7359 142.327 29.5679 143.974C28.6681 144.655 27.5099 145.032 26.8542 145.945C26.4081 146.688 26.1607 147.535 26.1363 148.404C25.9114 150.384 25.7247 152.423 26.2464 154.346C26.6389 155.795 27.4094 157.09 27.888 158.5C28.526 160.496 28.5824 162.635 28.0504 164.662C27.5184 166.689 26.4204 168.52 24.8872 169.935C25.6781 170.43 26.6293 170.595 27.5386 170.394ZM73.5607 229.007C74.2123 228.651 74.78 228.157 75.2252 227.559C75.6704 226.961 75.9826 226.274 76.1404 225.543C76.193 225.731 76.2361 225.92 76.284 226.108C76.898 228.631 76.7733 231.279 75.925 233.731C75.2897 232.083 74.4979 230.501 73.5607 229.007ZM74.5179 218.311C73.7207 217.158 73.0469 215.922 72.5078 214.625C71.7708 212.538 71.9383 210.277 72.1154 208.045C72.21 206.361 72.4405 204.687 72.8045 203.041C73.016 208.166 73.5934 213.269 74.5323 218.311H74.5179Z" fill="url(#paint1_linear)"/>
<path d="M55.9961 129.979C56.905 130.31 57.6658 130.96 58.1403 131.81C58.504 132.578 58.4944 133.472 58.7433 134.283C59.2698 135.993 60.8491 137.124 61.8255 138.631C63.156 140.655 63.3139 143.235 63.223 145.66C63.1321 148.085 62.8449 150.563 63.424 152.906C63.7064 154.051 64.1945 155.148 64.3812 156.312C64.6205 157.732 64.4195 159.21 64.7689 160.607C65.1574 161.854 65.7618 163.021 66.554 164.056L69.6697 168.655C68.2784 168.317 66.9087 167.894 65.5681 167.389C65.9821 168.703 66.7512 169.874 67.7888 170.771L65.5346 168.017C65.0778 167.384 64.5101 166.84 63.8595 166.413C63.0315 165.93 62.0552 165.862 61.1267 165.674C59.3368 165.307 57.5516 164.384 56.6757 162.776C55.5128 160.611 56.2546 157.896 55.6085 155.529C55.1299 153.8 53.9525 152.375 53.1389 150.776C51.3011 147.167 51.4112 142.906 50.8368 138.882C50.5928 137.177 50.2147 135.501 50.2051 133.752C50.2051 132.481 50.3295 130.056 51.6409 129.404C52.7943 128.863 54.9289 129.52 55.9961 129.979Z" fill="#3F3D56"/>
<path d="M81.0843 320.629L83.4773 329.213C83.8733 330.845 84.4313 332.433 85.1428 333.952C86.3102 336.249 88.1478 338.129 90.4074 339.338C91.4364 339.884 92.5515 340.305 93.4465 341.039C94.3415 341.773 94.9828 343.005 94.6382 344.126C94.2936 345.247 93.0732 345.879 91.9341 346.203C89.2344 346.948 86.3634 346.738 83.798 345.609C82.5775 345.063 81.4385 344.309 80.1798 343.86C78.921 343.411 77.4374 343.295 76.2983 344C76.0256 344.206 75.7239 344.368 75.4033 344.483C74.887 344.554 74.3627 344.432 73.9292 344.14C72.4644 343.382 71.0582 342.513 69.7224 341.541C69.1776 341.189 68.7061 340.733 68.3344 340.198C67.4251 338.749 68.0664 336.817 68.6455 335.218C70.1841 330.934 71.1858 326.473 71.6272 321.938C71.6188 321.737 71.6533 321.537 71.7285 321.351C71.8036 321.165 71.9176 320.998 72.0627 320.86C72.2748 320.748 72.5126 320.695 72.7519 320.706L82.9748 320.223" fill="#575A89"/>
<path d="M54.6178 329.223C55.1682 330.281 56.0249 331.155 56.6375 332.174C58.4322 335.165 58.0063 339.126 59.8489 342.082C61.4043 344.585 64.5008 346.261 64.8694 349.193C64.945 349.666 64.9104 350.15 64.7684 350.607C64.6263 351.064 64.3807 351.482 64.051 351.826C63.4049 352.43 62.4907 352.609 61.6293 352.763C59.7947 353.182 57.9139 353.357 56.0344 353.285C54.1631 353.135 52.2583 352.44 51.0235 351.01C50.1955 350.044 49.4058 348.676 48.1519 348.836C47.7212 348.889 47.2521 349.131 46.8884 348.894C46.7529 348.768 46.6492 348.611 46.586 348.436C46.5227 348.261 46.5017 348.074 46.5247 347.889L45.9599 325.923C47.769 325.725 50.9038 325 52.6603 325.628C54.1727 326.165 53.9286 327.884 54.6178 329.223Z" fill="#575A89"/>
<path d="M72.4791 227.683C76.8918 233.224 78.1984 240.562 79.615 247.528C81.4401 256.513 83.6831 265.399 86.3441 274.185C87.0524 276.523 87.7799 278.871 88.0527 281.301C88.5313 285.929 87.2774 290.532 86.301 295.078C84.267 304.59 83.4917 314.319 82.7259 324.02C81.1951 322.703 79.2775 321.931 77.269 321.824C75.2606 321.717 73.2729 322.28 71.6128 323.426C71.0959 311.73 70.8614 299.914 72.4312 288.31C72.728 286.131 73.0869 283.866 72.4312 281.779C71.9909 280.436 71.1582 279.272 70.4642 278.045C69.0284 275.513 68.2243 272.682 66.9178 270.088C64.8167 265.924 61.4426 262.359 60.3514 257.808C59.4181 260.629 59.4229 263.489 59.2554 266.455C58.7693 274.875 57.324 283.21 54.948 291.296C54.5268 292.716 54.077 294.194 54.3593 295.643C55.6994 302.494 53.7659 309.305 54.3593 316.261C54.5316 318.373 54.7661 320.479 54.9959 322.585L55.0724 323.261L55.5893 327.938C53.6749 326.619 51.6505 326.807 49.3388 326.928C48.5587 326.928 47.7846 327.066 47.0511 327.334C46.5863 327.523 46.164 327.805 45.8096 328.163C45.4552 328.521 45.1759 328.947 44.9884 329.416C44.7108 321.831 42.0067 315.02 40.7719 307.537C39.0729 297.238 40.5087 286.716 41.0878 276.291C41.2756 274.046 41.2307 271.787 40.9538 269.552C40.6654 267.914 40.2607 266.3 39.7429 264.721C38.0104 259.03 36.1678 253.315 35.5934 247.388C35.0191 241.461 34.6075 233.089 37.7998 228.065C38.7857 226.519 41.2122 227.214 42.7437 226.21C43.9504 225.446 45.2778 224.897 46.6682 224.586C55.0389 222.625 63.9217 226.939 72.4791 227.683Z" fill="#3C354C"/>
<path d="M57.3697 158.921C57.5564 161.032 57.9967 163.52 59.9015 164.408C60.9831 164.891 62.2371 164.722 63.4048 164.916C65.616 165.278 67.4346 166.993 68.4589 169.003C69.4831 171.012 69.8372 173.297 70.0765 175.544C70.3733 178.36 70.469 181.413 68.9375 183.785C67.7027 185.717 65.5873 186.872 63.3666 187.466C61.1608 188.05 58.8548 188.136 56.6124 187.718C54.37 187.301 52.2461 186.39 50.3917 185.051C48.6194 183.655 47.0133 182.057 45.6057 180.287C42.4278 176.553 39.226 172.461 38.5751 167.582C38.4986 167.027 38.5033 166.355 38.9532 166.027C39.2641 165.85 39.6233 165.779 39.9774 165.824L43.0261 165.877C43.7966 165.877 44.6677 165.877 45.1941 165.292C45.7206 164.708 45.6727 163.964 45.6727 163.249L45.467 154.317C45.4218 154 45.4952 153.678 45.6727 153.413C45.8653 153.236 46.1114 153.129 46.3715 153.109C48.0514 152.824 49.8078 153.109 51.4494 152.65C53.0145 152.215 55.4697 150.404 56.6183 152.264C57.5755 153.863 57.2118 157.119 57.3697 158.921Z" fill="#FFC1C7"/>
<path opacity="0.1" d="M57.3697 158.921C57.5564 161.032 57.9967 163.52 59.9015 164.408C60.9831 164.891 62.2371 164.722 63.4048 164.916C65.616 165.278 67.4346 166.993 68.4589 169.003C69.4831 171.012 69.8372 173.297 70.0765 175.544C70.3733 178.36 70.469 181.413 68.9375 183.785C67.7027 185.717 65.5873 186.872 63.3666 187.466C61.1608 188.05 58.8548 188.136 56.6124 187.718C54.37 187.301 52.2461 186.39 50.3917 185.051C48.6194 183.655 47.0133 182.057 45.6057 180.287C42.4278 176.553 39.226 172.461 38.5751 167.582C38.4986 167.027 38.5033 166.355 38.9532 166.027C39.2641 165.85 39.6233 165.779 39.9774 165.824L43.0261 165.877C43.7966 165.877 44.6677 165.877 45.1941 165.292C45.7206 164.708 45.6727 163.964 45.6727 163.249L45.467 154.317C45.4218 154 45.4952 153.678 45.6727 153.413C45.8653 153.236 46.1114 153.129 46.3715 153.109C48.0514 152.824 49.8078 153.109 51.4494 152.65C53.0145 152.215 55.4697 150.404 56.6183 152.264C57.5755 153.863 57.2118 157.119 57.3697 158.921Z" fill="black"/>
<path d="M49.6978 158.336C56.1287 158.336 61.3421 153.074 61.3421 146.583C61.3421 140.091 56.1287 134.829 49.6978 134.829C43.2668 134.829 38.0534 140.091 38.0534 146.583C38.0534 153.074 43.2668 158.336 49.6978 158.336Z" fill="#FFC1C7"/>
<path d="M62.2179 179.278C64.0988 179.312 66.2238 178.795 67.1332 177.114C67.7553 175.973 67.6548 174.587 67.5352 173.292L66.8604 166.046C68.6886 165.853 70.6556 165.689 72.2494 166.602C74.3696 167.814 75.121 170.5 75.3698 172.945C75.8149 177.534 75.0923 182.167 75.3411 186.77C75.5517 190.635 76.4371 194.625 75.3076 198.331C74.829 199.877 74.0346 201.302 73.5177 202.833C72.8716 204.765 72.7041 206.843 72.5605 208.886C72.3834 211.079 72.2159 213.35 72.9434 215.427C73.5512 217.166 74.7381 218.63 75.5852 220.258C76.9732 222.954 77.2699 226.586 75.1832 228.775C73.2688 230.775 70.1196 230.857 67.4442 230.224C64.7689 229.591 62.1797 228.383 59.4516 228.267C54.6082 228.06 50.2912 231.234 45.5723 232.263C44.9396 232.434 44.2767 232.457 43.6339 232.33C43.0652 232.144 42.536 231.853 42.0737 231.47L39.4797 229.586C38.9613 229.273 38.5299 228.833 38.2258 228.306C38.0085 227.72 37.9523 227.086 38.063 226.47C38.9341 218.316 43.5047 210.49 42.1838 202.398C41.7731 200.277 41.1443 198.204 40.3077 196.215C37.0197 187.722 33.076 178.901 34.3539 169.872C34.6315 167.872 35.2154 165.829 36.5794 164.35C37.9434 162.872 40.2502 162.138 42.0163 163.085C43.7823 164.032 44.4093 166.138 45.1894 167.969C46.6927 171.528 49.0796 174.636 52.1195 176.993C53.4021 177.988 54.9576 179.258 56.6375 179.302C58.3891 179.365 60.3035 179.239 62.2179 179.278Z" fill="#FC8B8B"/>
<path d="M79.0838 197.538C81.9075 200.703 82.4627 205.268 82.7738 209.509C83.6296 221.18 83.66 232.897 82.8647 244.572C82.8242 246.303 82.5357 248.02 82.008 249.668C81.405 251.286 80.2755 252.784 78.6865 253.431C77.6671 253.847 76.2457 253.736 75.7862 252.726C75.365 251.803 75.992 250.794 76.4658 249.876C77.5542 247.813 77.9185 245.44 77.4996 243.142C76.9205 243.567 76.7147 244.335 76.5424 245.04L75.6187 248.963C74.3695 248.779 73.9005 247.238 73.7043 245.982C73.3406 243.702 72.9912 241.272 73.8957 239.151C74.3743 238.021 75.188 237.06 75.6713 235.929C76.8918 233.089 77.3704 229.842 76.5855 226.847C73.9396 216.735 72.7849 206.285 73.1587 195.833C74.9712 196.869 77.0025 197.454 79.0838 197.538Z" fill="#FFC1C7"/>
<path d="M81.7496 200.722C78.2741 200.757 74.8157 201.218 71.4501 202.094C71.005 199.881 71.2204 197.592 71.4501 195.331L72.9338 179.872C73.0438 178.727 72.8333 168.21 75.03 170.07C75.8389 170.756 76.8583 176.901 77.1119 177.891C77.4948 179.379 77.7963 180.886 78.0691 182.403C78.6195 185.51 78.9928 188.645 79.5049 191.756C79.6533 192.679 80.9551 200.722 81.7496 200.722Z" fill="#FC8B8B"/>
<path d="M54.1392 131.641C54.1535 131.273 54.0709 130.908 53.8999 130.583C53.7483 130.391 53.559 130.234 53.344 130.12C53.129 130.006 52.893 129.938 52.6507 129.921C50.9661 129.655 49.1235 130.341 47.6063 129.563C46.7831 129.143 46.1992 128.356 45.4 127.897C43.4856 126.82 41.0926 127.897 39.4414 129.303C36.7745 131.536 34.831 134.524 33.8609 137.882C33.1143 140.481 32.8128 143.52 30.683 145.157C29.7976 145.834 28.6586 146.211 28.0124 147.119C27.5777 147.85 27.3355 148.682 27.3089 149.534C27.0887 151.505 26.9021 153.534 27.4142 155.447C27.8019 156.896 28.558 158.172 29.0319 159.573C29.6661 161.561 29.7243 163.691 29.1994 165.712C28.6745 167.733 27.5886 169.56 26.0693 170.978C26.8461 171.469 27.7829 171.632 28.6777 171.432C28.6576 171.848 28.527 172.25 28.2996 172.597C31.0228 172.51 33.3919 169.829 36.0577 170.413C38.0965 170.858 39.2308 172.978 40.748 174.423C42.7054 176.278 45.7445 177.056 48.1998 175.954C50.655 174.853 52.1482 171.722 51.1049 169.22C49.9179 166.375 46.2566 165.249 44.9884 162.457C44.0072 160.283 44.7347 157.737 44.5098 155.355C44.3327 153.312 43.4568 151.404 42.9112 149.423C42.3656 147.442 42.1886 145.182 43.2989 143.462C44.4763 141.631 46.7305 140.921 48.7836 140.244C53.4213 138.723 54.3115 136.365 54.1392 131.641Z" fill="#3F3D56"/>
<path d="M51.2771 173.896C51.6074 172.254 51.9376 170.515 51.3489 168.94C50.2625 166.041 46.697 165.109 44.2322 163.23C42.8042 162.134 41.7071 160.659 41.0638 158.969C40.6187 157.78 40.5565 156.148 41.6573 155.539C42.0857 155.336 42.5595 155.251 43.0309 155.293C46.8597 155.384 50.3965 157.491 53.3399 159.988C55.0533 161.437 56.6901 163.099 57.5324 165.186C58.0671 166.69 58.3894 168.263 58.4896 169.858L59.107 175.118C59.5118 178.138 59.7514 181.178 59.8249 184.225C59.8268 185.967 59.7181 187.708 59.4995 189.437C59.3463 190.664 59.1166 191.935 58.4035 192.939C57.0778 194.814 54.5173 195.234 52.2343 195.297C51.3711 195.347 50.505 195.291 49.6547 195.133C45.8594 194.302 42.9782 188.935 45.8546 185.621C47.075 184.215 48.9033 184.171 49.6021 182.239C50.5018 179.674 50.7315 176.568 51.2771 173.896Z" fill="#FFC1C7"/>
<path d="M48.1902 174.819L51.2102 179.761C51.3898 180.016 51.5153 180.305 51.5787 180.611C51.66 181.254 51.1862 181.824 50.8081 182.35C48.2237 185.906 48.8937 190.804 49.6595 195.142C45.5375 193.828 41.8665 191.366 39.0684 188.04C36.2703 184.715 34.4587 180.659 33.8418 176.341C33.4637 173.756 32.8559 169.5 35.1292 167.819C40.5805 163.761 45.6249 170.582 48.1902 174.819Z" fill="#FC8B8B"/>
<path d="M63.4049 164.916C62.2371 164.722 60.9831 164.916 59.9015 164.408C57.9871 163.52 57.5564 161.027 57.3697 158.921C57.3697 158.723 57.3458 158.51 57.3362 158.283C58.0192 157.576 58.7605 156.93 59.5521 156.351C60.2663 155.928 61.0258 155.59 61.8159 155.341L63.9313 154.592C64.1334 155.157 64.2934 155.737 64.4099 156.326C64.6492 157.747 64.4482 159.225 64.7976 160.621C65.1861 161.868 65.7905 163.036 66.5828 164.07L69.6984 168.669C69.1337 168.534 68.5737 168.384 68.0185 168.22C66.9321 166.553 65.3192 165.23 63.4049 164.916Z" fill="#3F3D56"/>
<path d="M485.778 185.263C485.223 182.543 484.184 179.949 483.557 177.254C483.3 175.846 482.953 174.457 482.519 173.094C482.297 172.502 482.02 171.933 481.691 171.394L481.988 171.114C481.002 169.432 480.963 167.326 480.499 165.413C480.097 163.766 479.298 162.259 478.815 160.636C478.145 158.384 478.054 155.843 476.67 153.983C476.125 153.249 475.412 152.674 474.804 151.993C474.105 151.215 473.555 150.302 472.846 149.539C470.788 147.327 467.687 146.641 464.753 146.322C461.819 146.003 458.785 146.008 456.081 144.776C454.947 144.259 453.75 143.52 452.563 143.607C451.896 142.958 451.283 142.255 450.73 141.505C449.828 140.401 449.009 139.231 448.28 138.003C448.85 137.029 449.291 135.983 449.591 134.892L449.788 134.752C450.558 134.162 451.223 133.394 451.98 132.819C452.645 132.336 453.501 131.829 453.573 130.969C453.645 130.109 452.874 129.452 452.396 128.742C450.668 126.196 452.578 122.211 450.807 119.694C449.922 118.433 448.376 117.955 446.978 117.341C445.064 116.491 443.355 115.269 441.455 114.443C439.555 113.617 437.358 113.168 435.444 113.96C431.864 115.457 430.577 120.602 426.939 121.945C426.545 122.026 426.189 122.239 425.929 122.549C425.484 123.283 424.896 127.607 425.001 128.501C425.14 129.684 425.422 130.269 426.231 130.684C426.231 130.935 426.231 131.191 426.231 131.448C426.231 137.597 430.452 142.703 436.018 143.757C436.552 144.324 437.006 144.963 437.368 145.655C437.65 146.389 437.811 147.164 437.846 147.95C437.647 147.853 437.427 147.807 437.205 147.814C436.851 147.865 436.519 148.019 436.25 148.256C435.981 148.494 435.785 148.805 435.688 149.153C435.49 149.862 435.41 150.6 435.453 151.336C435.484 151.563 435.462 151.795 435.389 152.012C435.316 152.229 435.194 152.426 435.032 152.587C434.857 152.694 434.658 152.757 434.453 152.771C433.714 152.911 432.965 152.988 432.213 153.003C430.969 153.003 429.634 152.689 428.538 153.302C427.442 153.916 426.944 155.235 426.418 156.428C425.655 158.135 424.65 159.722 423.436 161.138C422.096 162.703 420.43 164.186 420.052 166.259C420.047 166.307 420.047 166.355 420.052 166.404C419.004 166.887 417.932 168.046 417.181 168.631C415.739 169.757 414.354 170.955 413.031 172.22C411.686 173.529 409.872 175.152 409.04 176.901C408.615 177.649 408.049 178.305 407.374 178.833C406.01 179.727 404.249 179.254 402.713 178.751C398.453 177.365 394.17 175.964 390.197 173.843C390.001 173.707 389.763 173.647 389.527 173.674C389.397 173.715 389.281 173.792 389.192 173.896C389.16 173.846 389.125 173.798 389.087 173.751C388.015 172.582 386.33 172.505 385.737 170.718C385.572 170.15 385.455 169.57 385.387 168.983C385.012 167.274 384.405 165.626 383.583 164.085C383.463 163.767 383.257 163.489 382.989 163.283C382.737 163.16 382.448 163.139 382.181 163.224C381.914 163.309 381.69 163.495 381.554 163.742C381.279 164.247 381.171 164.828 381.247 165.399C381.286 166.027 381.377 166.756 380.946 167.205C380.773 167.37 380.562 167.489 380.333 167.553C378.95 168.007 377.428 167.602 376.136 166.92C374.844 166.239 373.681 165.292 372.403 164.573C371.728 164.199 371.031 163.867 370.316 163.578C369.579 163.268 368.555 163.065 368.143 163.776C367.813 164.346 368.143 165.075 368.526 165.616C369.168 166.55 369.914 167.406 370.752 168.167C373.24 170.413 376.375 171.664 379.295 173.23C381.84 174.596 384.245 176.214 386.474 178.06C386.387 178.341 386.334 178.632 386.316 178.925C386.317 179.496 386.436 180.06 386.665 180.581C386.894 181.103 387.228 181.57 387.646 181.954C388.473 182.696 389.403 183.311 390.408 183.78C395.474 186.437 400.58 189.025 405.723 191.543C406.05 191.735 406.414 191.854 406.79 191.891C407.834 191.915 408.499 190.775 409.336 190.118C410.174 189.461 411.251 189.278 412.261 188.935C414.055 188.311 415.611 187.128 417.147 185.959L422.043 182.22C424.508 180.341 427.035 178.355 429.102 176.036C429.363 176.59 429.735 177.083 430.194 177.486C429.792 178.389 430.629 179.326 430.83 180.302C430.902 180.943 430.919 181.59 430.883 182.234C430.968 183.175 431.129 184.107 431.361 185.022C431.597 186.515 431.706 188.026 431.687 189.539C431.687 191.224 431.74 192.92 431.763 194.601C431.797 196.785 431.83 198.992 431.376 201.123C430.758 204.021 429.246 206.775 429.366 209.751C429.452 210.306 429.398 210.875 429.208 211.403C427.959 213.818 426.973 216.48 425.628 218.857C425.231 219.434 424.909 220.061 424.671 220.722C424.503 221.411 424.571 222.138 424.862 222.784C424.329 223.749 424.029 224.826 423.986 225.929C423.895 228.659 424.982 231.243 425.503 233.934C425.982 236.403 425.982 238.934 426.054 241.451C426.422 253.228 428.705 264.871 429.179 276.644C429.403 282.072 429.243 287.509 428.7 292.914C428.351 296.402 427.834 299.88 427.643 303.387C427.092 313.339 429.15 323.194 431.194 332.952C431.812 332.219 432.679 331.745 433.625 331.624C433.376 332.59 433.046 333.846 432.702 334.773C432.202 334.843 431.723 335.018 431.294 335.285C430.103 336.053 429.696 337.628 429.002 338.904C427.485 341.681 424.503 343.107 422.057 345.015C420.885 345.928 419.703 347.324 420.071 348.807C424.307 350.048 428.921 351.15 432.993 349.44C434.649 348.749 436.2 347.604 437.976 347.546C439.325 347.503 440.704 348.097 441.996 347.691C442.316 347.604 442.597 347.408 442.79 347.135C442.942 346.837 443.015 346.504 443.001 346.169C443.111 343.898 443.101 341.623 442.972 339.353C442.862 337.421 443.058 335.971 441.503 335.701C441.116 334.73 440.829 333.721 440.646 332.691C440.646 332.503 440.603 332.305 440.579 332.107C441.008 332.11 441.435 332.075 441.857 332C442.118 331.956 442.375 331.894 442.628 331.817C442.546 331.483 442.475 331.145 442.408 330.812C442.274 330.14 442.168 329.469 442.082 328.798C441.996 328.126 441.934 327.445 441.886 326.769C441.886 326.426 441.848 326.087 441.833 325.744C441.804 325.063 441.795 324.382 441.8 323.696C441.804 323.01 441.8 322.329 441.848 321.643C441.895 320.957 441.915 320.271 441.962 319.585C442.077 317.87 442.245 316.155 442.412 314.455C442.9 309.46 443.392 304.468 443.886 299.479C444.03 297.982 444.178 296.479 444.197 294.977C444.216 294.078 444.174 293.179 444.073 292.286C443.819 290.122 443.145 287.938 443.116 285.803C443.107 285.447 443.12 285.09 443.154 284.735C443.187 284.377 443.247 284.022 443.331 283.673C443.374 283.479 443.432 283.286 443.489 283.098C443.609 282.716 443.743 282.344 443.862 281.962C443.925 281.774 443.982 281.581 444.035 281.388C444.23 280.572 444.347 279.738 444.384 278.9C444.384 278.619 444.418 278.339 444.432 278.059L445.021 266.281C445.116 264.393 445.274 262.354 446.007 260.668C446.321 259.924 446.782 259.252 447.361 258.692C447.213 258.291 447.361 257.615 447.773 257.509C448.255 263.521 448.195 269.565 447.596 275.566C447.385 277.45 447.074 279.32 446.988 281.214C446.806 285.387 447.72 289.518 448.041 293.682C448.361 297.846 448.041 302.136 448.041 306.363C448.007 313.633 448.802 320.88 449.591 328.102L450.07 328.421C450.07 329.058 450.142 329.754 450.132 330.353C450.116 330.561 450.137 330.771 450.194 330.971H449.993C449.53 331.011 449.084 331.164 448.692 331.416C448.3 331.669 447.975 332.013 447.744 332.421C447.27 333.248 446.926 334.144 446.725 335.078C446.49 335.767 446.392 336.495 446.437 337.223C446.619 338.599 447.777 339.638 448.084 340.991C448.644 343.44 446.265 346.082 447.347 348.333C448.036 349.783 449.773 350.184 451.29 350.435C453.607 350.817 456.244 351.121 458.067 349.57C458.563 349.136 458.959 348.599 459.227 347.995C459.496 347.391 459.631 346.735 459.623 346.073C459.623 344.305 458.584 342.73 458.13 341.029C457.488 338.643 458.445 335.435 457.436 333.232C457.353 333 457.226 332.787 457.062 332.604H457.407C457.325 331.797 457.244 330.986 457.158 330.189L457.962 329.773C458.79 329.353 459.747 329.034 460.609 329.363C460.288 325.213 460.197 320.629 461.145 316.59C461.882 313.402 463.203 310.377 463.815 307.16C464.294 304.508 464.327 301.783 464.337 299.083C464.337 294.069 464.337 289.02 463.504 284.107C463.169 282.136 462.691 280.117 463.054 278.146C463.294 276.847 463.877 275.648 464.222 274.373C465.026 271.393 464.437 268.19 464.916 265.132C466.055 257.827 466.658 250.204 467.524 242.866C467.956 238.708 468.103 234.524 467.965 230.345V230.296L469.683 226.915C470.913 224.499 472.162 222.045 472.909 219.451C473.167 219.816 473.374 220.214 473.526 220.635L481.078 207.968C481.568 207.219 481.956 206.407 482.232 205.553C482.404 204.939 482.461 204.297 482.591 203.674C482.931 202.055 483.744 200.596 484.395 199.089C486.24 194.73 486.723 189.906 485.778 185.263ZM474.478 191.621C474.127 193.702 473.648 195.759 473.043 197.78C472.047 201.248 470.894 204.659 469.74 208.074L468.75 210.973C468.408 212.14 467.895 213.249 467.228 214.263C467.075 214.516 466.939 214.779 466.821 215.05C465.797 211.186 466.907 206.838 466.672 202.717C466.495 199.601 465.538 196.437 466.256 193.418C466.735 191.384 467.941 189.635 468.788 187.732C469.578 185.964 470.071 184.036 470.961 182.331C470.961 182.365 470.961 182.394 470.994 182.423C471.786 184.523 472.735 186.559 473.832 188.514C474.14 188.956 474.375 189.446 474.526 189.964C474.625 190.516 474.614 191.082 474.493 191.63L474.478 191.621Z" fill="url(#paint2_linear)"/>
<path d="M385.612 170.703C385.44 170.135 385.318 169.553 385.248 168.964C384.937 167.23 384.143 165.631 383.363 164.051C383.239 163.727 383.024 163.447 382.745 163.244C382.485 163.127 382.191 163.109 381.918 163.194C381.646 163.278 381.413 163.459 381.262 163.703C380.978 164.207 380.866 164.79 380.941 165.365C380.984 166.003 381.08 166.732 380.635 167.181C380.45 167.347 380.228 167.466 379.989 167.529C378.553 167.988 376.959 167.577 375.605 166.896C374.25 166.215 373.044 165.259 371.709 164.539C371.003 164.165 370.275 163.833 369.531 163.544C368.761 163.23 367.693 163.027 367.263 163.742C366.918 164.312 367.263 165.041 367.66 165.587C368.331 166.53 369.112 167.388 369.986 168.143C372.58 170.399 375.858 171.655 378.907 173.225C382.322 174.984 385.506 177.169 388.383 179.727C388.662 179.393 388.83 178.979 388.862 178.543C389.092 177.312 390.101 174.819 389.082 173.751C387.967 172.577 386.23 172.5 385.612 170.703Z" fill="#A0616A"/>
<path d="M433.611 336.59C436.166 338.602 439.404 339.519 442.623 339.14C443.293 339.058 444.059 338.817 444.279 338.174C444.359 337.784 444.316 337.378 444.154 337.015C443.648 335.799 443.259 334.537 442.991 333.247C442.824 332.073 442.867 330.677 441.919 329.971C440.551 328.952 436.971 329.005 436.08 330.585C435.87 330.923 434.53 337.367 433.611 336.59Z" fill="#3C354C"/>
<path d="M452.894 330.889C452.861 331.017 452.855 331.151 452.878 331.281C452.9 331.411 452.95 331.535 453.024 331.644C453.098 331.753 453.194 331.844 453.306 331.913C453.418 331.981 453.544 332.024 453.674 332.039C455.872 332.726 458.151 333.111 460.451 333.184L459.972 328.537C459.981 328.433 459.968 328.328 459.933 328.23C459.899 328.132 459.843 328.042 459.771 327.968C459.698 327.893 459.611 327.836 459.514 327.799C459.418 327.762 459.314 327.747 459.211 327.754C457.89 327.532 455.114 326.628 453.846 327.092C452.42 327.614 452.922 329.503 452.894 330.889Z" fill="#3C354C"/>
<path d="M439.526 145.525C439.898 146.5 440.081 147.538 440.067 148.583C440.187 152.326 439.55 156.37 436.966 159.056C439.866 158.181 443.125 158.708 445.863 157.404C447.131 156.8 448.199 155.838 449.386 155.09C451.501 153.756 453.966 153.109 456.167 151.921C458.369 150.732 460.408 148.727 460.532 146.215C459.575 145.201 458.039 145.056 456.785 144.442C455.435 143.776 454.435 142.558 453.482 141.385C452.359 140.09 451.374 138.68 450.544 137.177C449.71 135.663 449.375 133.92 449.587 132.201C447.141 132.646 445.365 134.8 443.054 135.723C442.154 136.08 441.182 136.245 440.306 136.655C439.057 137.235 436.526 139.206 436.478 140.752C436.482 142.438 438.875 144.037 439.526 145.525Z" fill="#A0616A"/>
<path opacity="0.1" d="M439.526 145.525C439.898 146.5 440.081 147.538 440.067 148.583C440.187 152.326 439.55 156.37 436.966 159.056C439.866 158.181 443.125 158.708 445.863 157.404C447.131 156.8 448.199 155.838 449.386 155.09C451.501 153.756 453.966 153.109 456.167 151.921C458.369 150.732 460.408 148.727 460.532 146.215C459.575 145.201 458.039 145.056 456.785 144.442C455.435 143.776 454.435 142.558 453.482 141.385C452.359 140.09 451.374 138.68 450.544 137.177C449.71 135.663 449.375 133.92 449.587 132.201C447.141 132.646 445.365 134.8 443.054 135.723C442.154 136.08 441.182 136.245 440.306 136.655C439.057 137.235 436.526 139.206 436.478 140.752C436.482 142.438 438.875 144.037 439.526 145.525Z" fill="black"/>
<path d="M471.013 243.089C470.109 250.451 469.482 258.103 468.29 265.431C467.812 268.499 468.405 271.711 467.567 274.706C467.208 275.987 466.61 277.189 466.347 278.489C465.969 280.47 466.467 282.494 466.826 284.474C467.706 289.426 467.706 294.494 467.692 299.527C467.692 302.237 467.692 304.972 467.151 307.634C466.51 310.865 465.131 313.914 464.361 317.092C463.37 321.15 463.466 325.749 463.801 329.913C462.901 329.585 461.887 329.913 461.035 330.324C460.183 330.735 459.321 331.29 458.369 331.353C457.081 331.474 455.87 330.788 454.76 330.121C453.908 329.614 453.166 329.155 452.319 328.633C451.491 321.387 450.663 314.112 450.697 306.812C450.697 302.571 451.027 298.32 450.697 294.088C450.367 289.856 449.405 285.759 449.601 281.576C449.692 279.673 450.012 277.798 450.228 275.909C450.936 269.793 450.84 263.929 450.414 257.789C449.998 257.895 449.831 258.571 449.984 258.972C449.376 259.528 448.887 260.204 448.548 260.958C447.782 262.649 447.619 264.697 447.519 266.591L446.902 278.412C446.885 279.536 446.747 280.656 446.49 281.75C446.275 282.528 445.949 283.262 445.753 284.044C445.049 286.875 446.179 289.793 446.538 292.687C446.83 295.102 446.581 297.518 446.337 299.904L444.801 314.938C444.241 320.406 443.695 325.991 444.801 331.363C444.872 331.696 444.944 332.034 445.03 332.372C444.766 332.45 444.498 332.511 444.226 332.556C443.274 332.691 442.307 332.691 441.355 332.556C440.464 332.464 439.565 332.31 438.684 332.203C436.569 331.962 434.458 331.87 433.056 333.483C430.921 323.715 428.777 313.798 429.347 303.812C429.548 300.295 430.084 296.803 430.452 293.3C431.026 287.88 431.199 282.423 430.969 276.977C430.49 265.161 428.097 253.475 427.7 241.654C427.619 239.132 427.628 236.586 427.131 234.113C426.585 231.432 425.451 228.799 425.542 226.079C425.633 223.359 427.6 220.34 430.328 220.49C437.856 220.91 444.734 216.717 452.243 216.002C455.65 215.673 459.115 215.186 462.49 215.799C465.864 216.413 469.223 218.34 470.549 221.528C471.267 223.263 471.324 225.185 471.377 227.06C471.53 232.412 471.669 237.779 471.013 243.089Z" fill="#C8A2C8"/>
<path d="M433.194 335.826C431.95 336.599 431.524 338.179 430.802 339.459C429.217 342.247 426.106 343.677 423.551 345.59C422.326 346.512 421.091 347.908 421.478 349.401C425.901 350.643 430.715 351.749 434.98 350.034C436.707 349.338 438.33 348.189 440.182 348.131C441.594 348.087 443.054 348.686 444.379 348.276C444.714 348.197 445.009 348 445.212 347.72C445.367 347.423 445.443 347.09 445.432 346.754C445.548 344.473 445.537 342.188 445.399 339.908C445.265 337.681 445.561 336.107 443.044 336.203C440.153 336.329 435.702 334.266 433.194 335.826Z" fill="#CBCEDA"/>
<path d="M454.387 331.865C453.864 331.654 453.312 331.529 452.75 331.493C452.273 331.531 451.812 331.682 451.403 331.934C450.995 332.185 450.651 332.531 450.4 332.942C449.906 333.767 449.547 334.668 449.338 335.609C449.093 336.297 448.992 337.029 449.041 337.759C449.228 339.14 450.438 340.174 450.759 341.536C451.338 343.995 448.845 346.648 449.984 348.908C450.706 350.358 452.52 350.763 454.105 351.015C456.526 351.401 459.278 351.705 461.183 350.145C461.695 349.72 462.106 349.185 462.388 348.579C462.669 347.973 462.814 347.312 462.81 346.643C462.782 344.865 461.724 343.285 461.245 341.575C460.58 339.16 461.58 335.962 460.523 333.754C459.618 331.865 456.316 332.488 454.387 331.865Z" fill="#CBCEDA"/>
<path d="M440.335 143.824C447.205 143.824 452.774 138.203 452.774 131.269C452.774 124.335 447.205 118.713 440.335 118.713C433.465 118.713 427.896 124.335 427.896 131.269C427.896 138.203 433.465 143.824 440.335 143.824Z" fill="#A0616A"/>
<path d="M446.93 151.843C445.589 151.268 444.097 151.154 442.685 151.52L441.551 149.525C441.072 148.645 440.359 147.65 439.359 147.689C438.995 147.736 438.651 147.889 438.371 148.128C438.09 148.367 437.883 148.682 437.775 149.037C437.567 149.746 437.483 150.487 437.526 151.225C437.559 151.455 437.536 151.69 437.461 151.909C437.385 152.129 437.258 152.326 437.09 152.486C436.904 152.589 436.699 152.651 436.487 152.669C435.714 152.807 434.932 152.884 434.147 152.901C432.845 152.901 431.452 152.582 430.318 153.201C429.184 153.819 428.657 155.133 428.107 156.341C427.304 158.061 426.256 159.653 424.996 161.065C423.594 162.635 421.857 164.123 421.459 166.201C421.292 167.085 422.086 167.742 422.718 168.379C425.231 170.896 428.734 172.442 430.596 175.486C431.031 176.196 431.385 176.998 432.055 177.486C431.639 178.399 432.534 179.336 432.721 180.316C432.794 180.958 432.812 181.604 432.773 182.249C432.856 183.193 433.017 184.128 433.252 185.046C433.497 186.543 433.611 188.06 433.592 189.577L433.673 194.659C433.707 196.852 433.74 199.065 433.266 201.205C432.62 204.104 431.041 206.881 431.165 209.862C431.258 210.421 431.201 210.994 431.003 211.524C429.696 213.939 428.667 216.615 427.265 219.002C426.864 219.581 426.542 220.211 426.308 220.876C425.934 222.253 426.7 223.746 427.829 224.606C428.959 225.466 430.385 225.818 431.773 226.084C444.667 228.577 458.053 225.577 470.238 220.649C470.559 220.548 470.856 220.384 471.114 220.166C472.004 219.292 471.305 217.818 470.798 216.678C468.884 212.432 470.41 207.5 470.138 202.862C469.956 199.736 468.951 196.582 469.707 193.529C470.186 191.49 471.463 189.732 472.349 187.828C473.306 185.766 473.842 183.481 475.096 181.597C476.035 180.302 477.133 179.133 478.365 178.118L486.142 171.123C485.113 169.437 485.07 167.321 484.587 165.404C484.165 163.751 483.328 162.235 482.825 160.611C482.127 158.351 482.031 155.781 480.585 153.93C480.016 153.191 479.274 152.616 478.638 151.935C477.91 151.153 477.336 150.24 476.594 149.471C474.445 147.249 471.205 146.544 468.147 146.244C465.088 145.945 461.925 145.93 459.092 144.694C457.704 144.09 456.22 143.177 454.784 143.631C453.645 143.988 452.913 145.114 452.449 146.23C451.984 147.346 451.659 148.549 450.898 149.481C449.96 150.592 448.299 151.326 446.93 151.843Z" fill="#3C354C"/>
<path d="M409.92 176.906C409.47 177.659 408.878 178.315 408.178 178.838C406.742 179.732 404.919 179.258 403.316 178.756C398.869 177.36 394.394 175.959 390.245 173.829C390.04 173.69 389.792 173.63 389.546 173.659C389.354 173.722 389.187 173.843 389.068 174.007C388.415 174.737 387.815 175.514 387.273 176.331C386.7 177.089 386.34 177.988 386.23 178.935C386.233 179.511 386.358 180.081 386.597 180.605C386.835 181.129 387.182 181.595 387.613 181.973C388.479 182.719 389.446 183.335 390.484 183.804C395.778 186.471 401.106 189.068 406.47 191.596C406.813 191.789 407.193 191.908 407.585 191.944C408.676 191.968 409.37 190.824 410.241 190.167C411.112 189.51 412.256 189.326 413.294 188.978C415.17 188.355 416.802 187.167 418.401 185.993L423.512 182.244C427.992 178.959 432.697 175.379 434.654 170.167L428.432 168.099C426.566 167.476 424.604 166.529 422.665 166.167C421.23 165.887 419.502 167.8 418.425 168.616C416.911 169.749 415.456 170.96 414.065 172.244C412.687 173.519 410.791 175.152 409.92 176.906Z" fill="#3C354C"/>
<path d="M468.812 218.147C467.055 218.852 465.064 217.789 463.203 218.103C462.33 218.3 461.497 218.648 460.743 219.132L455.306 222.2C454.971 222.383 454.607 222.833 454.899 223.074C454.983 223.131 455.08 223.164 455.181 223.171C456.995 223.408 458.689 222.292 460.494 221.983C461.287 221.873 462.088 221.843 462.887 221.891C463.019 221.883 463.151 221.903 463.274 221.949C463.407 222.025 463.515 222.138 463.586 222.274C463.657 222.41 463.688 222.563 463.676 222.717C463.676 223.026 463.586 223.325 463.576 223.635C463.63 224.347 463.907 225.023 464.366 225.567C466.096 228.074 468.016 230.442 470.109 232.649C470.64 231.972 471.098 231.24 471.478 230.465L473.268 227.084C475.125 223.596 477.025 219.978 477.321 216.031C475.981 215.601 473.493 214.176 472.109 214.925C470.726 215.673 470.406 217.63 468.812 218.147Z" fill="#A0616A"/>
<path d="M438.761 129.264C442.264 129.641 445.461 131.312 448.596 132.955C448.06 133.805 448.739 135.027 449.692 135.317C450.644 135.607 451.688 135.196 452.496 134.602C453.305 134.008 453.971 133.24 454.784 132.67C455.483 132.187 456.373 131.675 456.45 130.815C456.526 129.955 455.722 129.293 455.22 128.578C453.415 126.022 455.411 122.023 453.564 119.496C452.635 118.23 451.022 117.752 449.591 117.134C447.61 116.283 445.806 115.056 443.819 114.211C441.833 113.366 439.546 112.926 437.545 113.728C433.802 115.23 432.462 120.395 428.662 121.742C428.253 121.824 427.882 122.037 427.604 122.351C427.126 123.085 426.528 127.428 426.647 128.322C426.829 129.815 427.236 130.365 428.691 130.81C431.802 131.747 435.43 128.902 438.761 129.264Z" fill="#3F3D56"/>
<path d="M484.118 169.321C485.243 170.354 486.119 171.633 486.678 173.06C487.132 174.425 487.493 175.82 487.76 177.234C488.415 179.949 489.497 182.548 490.076 185.273C491.062 189.928 490.559 194.779 488.64 199.128C487.961 200.645 487.109 202.104 486.755 203.732C486.621 204.355 486.558 205.002 486.381 205.616C486.089 206.472 485.683 207.284 485.175 208.031L477.326 220.78C477.025 220.036 476.571 219.365 475.993 218.812C475.415 218.259 474.728 217.836 473.976 217.572C472.466 217.057 470.846 216.959 469.286 217.287C469.87 216.359 470.128 215.321 470.722 214.388C471.048 213.893 471.346 213.38 471.617 212.852C471.884 212.279 472.117 211.69 472.315 211.089L473.344 208.157C474.55 204.732 475.737 201.306 476.795 197.828C477.432 195.803 477.937 193.737 478.307 191.645C478.423 191.113 478.436 190.563 478.346 190.026C478.185 189.497 477.939 188.997 477.618 188.548C476.476 186.593 475.486 184.551 474.656 182.442C474.033 180.969 473.406 179.312 473.966 177.814C474.323 177.021 474.849 176.318 475.508 175.756C478.117 173.277 481.007 171.117 484.118 169.321Z" fill="#3C354C"/>
<path opacity="0.1" d="M444.231 332.546L444.805 331.353C443.705 325.991 444.25 320.406 444.805 314.928L446.342 299.894C446.586 297.479 446.82 295.064 446.543 292.677C446.184 289.779 445.054 286.88 445.758 284.035C445.954 283.252 446.279 282.518 446.495 281.74C446.752 280.646 446.89 279.527 446.906 278.402L447.524 266.581C447.624 264.687 447.787 262.639 448.553 260.948V260.624L446.581 243.494L441.374 332.546H444.231Z" fill="black"/>
<path d="M399.439 339.933C400.875 337.271 399.247 334.005 397.386 331.633C395.524 329.261 393.265 326.802 393.313 323.764C393.385 319.416 397.955 316.851 401.607 314.542C404.319 312.833 406.818 310.804 409.054 308.498C409.991 307.612 410.765 306.565 411.342 305.406C412.098 303.706 412.079 301.774 412.031 299.914C411.868 293.711 411.563 287.513 411.117 281.32" stroke="#3F3D56" stroke-width="4" stroke-miterlimit="10"/>
<path d="M418.061 280.982C418.01 279.846 417.677 278.742 417.091 277.771C416.506 276.8 415.687 275.993 414.711 275.426L413.208 278.431L413.256 274.793C412.537 274.581 411.788 274.489 411.04 274.523C409.718 274.589 408.445 275.049 407.382 275.844C406.319 276.64 405.513 277.736 405.065 278.993C404.618 280.251 404.55 281.613 404.87 282.91C405.189 284.206 405.882 285.378 406.86 286.278C407.839 287.178 409.059 287.764 410.368 287.965C411.677 288.165 413.015 287.969 414.213 287.403C415.412 286.836 416.418 285.924 417.103 284.781C417.789 283.639 418.124 282.316 418.066 280.982H418.061Z" fill="#6FCF97"/>
<path d="M406.082 326.87C405.377 328.248 404.225 329.34 402.817 329.963C401.41 330.586 399.833 330.701 398.352 330.29C396.87 329.879 395.573 328.967 394.679 327.705C393.784 326.444 393.347 324.911 393.439 323.363C393.531 321.814 394.148 320.345 395.186 319.201C396.224 318.058 397.619 317.308 399.139 317.08C400.659 316.851 402.211 317.157 403.534 317.945C404.857 318.734 405.872 319.957 406.407 321.411L402.21 324.875L406.829 323.798C406.824 324.867 406.568 325.92 406.082 326.87Z" fill="#6FCF97"/>
<path d="M402.765 313.706C401.096 313.825 399.444 313.309 398.132 312.261C396.821 311.212 395.946 309.706 395.679 308.039C395.412 306.372 395.772 304.664 396.689 303.252C397.607 301.839 399.014 300.824 400.635 300.407L400.597 303.199L402.119 300.16C403 300.117 403.882 300.249 404.712 300.55C405.542 300.852 406.306 301.315 406.958 301.915C407.61 302.515 408.139 303.238 408.513 304.045C408.888 304.851 409.101 305.724 409.14 306.614C409.179 307.397 409.082 308.18 408.853 308.928C408.449 310.261 407.648 311.435 406.558 312.29C405.469 313.145 404.144 313.639 402.765 313.706Z" fill="#6FCF97"/>
<path d="M419.071 302.754C418.04 302.793 417.014 302.59 416.073 302.162C415.133 301.735 414.302 301.093 413.648 300.289C412.993 299.484 412.531 298.537 412.298 297.523C412.065 296.508 412.067 295.453 412.304 294.44C412.542 293.426 413.008 292.482 413.666 291.68C414.324 290.878 415.157 290.241 416.1 289.817C417.043 289.394 418.069 289.195 419.1 289.238C420.131 289.281 421.138 289.564 422.043 290.064L420.856 293.349L423.297 290.982C424.605 292.191 425.385 293.874 425.465 295.663C425.497 296.291 425.441 296.92 425.298 297.532C424.966 298.969 424.178 300.257 423.054 301.2C421.93 302.143 420.531 302.688 419.071 302.754Z" fill="#6FCF97"/>
<path opacity="0.1" d="M417.157 282.788C415.606 282.958 414.098 283.445 412.543 283.542C410.988 283.639 409.279 283.267 408.293 282.045C407.767 281.388 407.499 280.557 407.053 279.837C406.628 279.168 406.046 278.616 405.359 278.228C404.954 279.083 404.731 280.015 404.706 280.962C404.68 281.91 404.852 282.852 405.211 283.728C405.569 284.605 406.106 285.395 406.786 286.048C407.467 286.701 408.276 287.203 409.161 287.52C410.046 287.837 410.987 287.963 411.923 287.89C412.86 287.816 413.77 287.545 414.596 287.093C415.421 286.642 416.144 286.02 416.716 285.268C417.288 284.517 417.698 283.652 417.918 282.73C417.666 282.74 417.412 282.759 417.157 282.788Z" fill="black"/>
<path opacity="0.1" d="M419.071 302.754C417.913 302.814 416.759 302.568 415.722 302.043C414.686 301.517 413.803 300.728 413.159 299.755C412.515 298.781 412.132 297.655 412.049 296.487C411.965 295.319 412.183 294.15 412.682 293.093C413.215 293.454 413.673 293.917 414.031 294.455C414.51 295.184 414.802 296.03 415.362 296.696C416.41 297.938 418.195 298.344 419.818 298.271C421.44 298.199 423.005 297.73 424.604 297.581C424.829 297.581 425.054 297.547 425.283 297.542C424.951 298.975 424.164 300.259 423.043 301.199C421.922 302.14 420.527 302.686 419.071 302.754Z" fill="black"/>
<path opacity="0.1" d="M402.765 313.706C401.618 313.765 400.474 313.524 399.445 313.008C398.416 312.492 397.536 311.718 396.889 310.759C396.242 309.8 395.85 308.69 395.751 307.534C395.652 306.379 395.849 305.217 396.323 304.16C396.881 304.528 397.367 304.994 397.759 305.537C398.281 306.281 398.606 307.141 399.219 307.827C400.353 309.097 402.258 309.547 403.971 309.508C405.685 309.469 407.24 309.059 408.891 308.928C408.485 310.266 407.678 311.445 406.581 312.3C405.484 313.156 404.151 313.647 402.765 313.706Z" fill="black"/>
<path opacity="0.1" d="M406.082 326.87C405.355 328.509 404.013 329.79 402.351 330.431C400.689 331.071 398.842 331.019 397.218 330.285C395.594 329.552 394.325 328.197 393.691 326.519C393.056 324.842 393.108 322.978 393.835 321.339C394.389 321.705 394.886 322.152 395.309 322.667C395.95 323.45 396.371 324.343 397.108 325.083C398.482 326.445 400.698 327.015 402.674 327.058C403.813 327.064 404.951 327.001 406.082 326.87Z" fill="black"/>
<path d="M389.307 336.865C389.307 336.865 394.61 336.701 396.208 335.551C397.807 334.401 404.345 333.034 404.756 334.875C405.168 336.715 412.725 344.053 406.742 344.082C400.76 344.111 392.834 343.145 391.236 342.15C389.637 341.155 389.307 336.865 389.307 336.865Z" fill="#656380"/>
<path opacity="0.2" d="M406.848 343.445C400.86 343.493 392.94 342.478 391.346 341.512C390.13 340.764 389.647 338.087 389.484 336.851H389.307C389.307 336.851 389.642 341.169 391.221 342.164C392.801 343.16 400.741 344.131 406.728 344.097C408.456 344.097 409.049 343.464 409.016 342.546C408.791 343.087 408.135 343.43 406.848 343.445Z" fill="black"/>
<path d="M27.9502 345.247C26.5144 342.585 28.1417 339.319 30.0034 336.947C31.8652 334.575 34.1242 332.116 34.0763 329.078C34.0045 324.73 29.4339 322.165 25.7822 319.856C23.0706 318.147 20.5707 316.118 18.3352 313.812C17.3983 312.926 16.6238 311.879 16.0475 310.72C15.2913 309.02 15.3104 307.088 15.3583 305.228C15.521 299.025 15.8257 292.827 16.2724 286.634" stroke="#3F3D56" stroke-width="4" stroke-miterlimit="10"/>
<path d="M9.32793 286.296C9.37882 285.16 9.71246 284.056 10.298 283.085C10.8836 282.114 11.7022 281.307 12.6781 280.74L14.1809 283.745L14.1331 280.107C14.8519 279.895 15.6006 279.803 16.349 279.837C17.6709 279.903 18.9438 280.363 20.0071 281.158C21.0704 281.954 21.8765 283.05 22.3236 284.307C22.7707 285.564 22.8389 286.927 22.5195 288.224C22.2 289.52 21.5074 290.692 20.5288 291.592C19.5503 292.491 18.3297 293.078 17.0211 293.279C15.7124 293.479 14.3744 293.283 13.1757 292.717C11.9771 292.15 10.9715 291.238 10.2858 290.095C9.60019 288.952 9.26521 287.63 9.32315 286.296H9.32793Z" fill="#6FCF97"/>
<path d="M21.3073 332.184C22.0118 333.562 23.1644 334.654 24.5718 335.277C25.9791 335.9 27.5558 336.015 29.0375 335.604C30.5192 335.193 31.8159 334.281 32.7103 333.019C33.6047 331.758 34.0424 330.225 33.9501 328.677C33.8578 327.128 33.2411 325.659 32.2033 324.515C31.1655 323.371 29.7697 322.622 28.2499 322.394C26.73 322.165 25.1785 322.47 23.8553 323.259C22.532 324.048 21.5176 325.271 20.9818 326.725L25.1791 330.169L20.5798 329.092C20.5756 330.166 20.825 331.226 21.3073 332.184Z" fill="#6FCF97"/>
<path d="M24.624 319.02C26.2929 319.139 27.9456 318.623 29.257 317.575C30.5684 316.526 31.4436 315.02 31.7106 313.353C31.9776 311.686 31.617 309.978 30.6997 308.566C29.7824 307.153 28.3748 306.138 26.7537 305.72L26.792 308.513L25.2701 305.474C24.3888 305.431 23.5076 305.563 22.6773 305.864C21.8469 306.165 21.0836 306.629 20.4312 307.229C19.7789 307.829 19.2503 308.552 18.8758 309.359C18.5013 310.165 18.2883 311.038 18.249 311.928C18.2097 312.71 18.3069 313.494 18.5362 314.242C18.9398 315.574 19.7412 316.748 20.8309 317.604C21.9206 318.459 23.2453 318.953 24.624 319.02Z" fill="#6FCF97"/>
<path d="M8.31809 308.068C9.34915 308.106 10.375 307.904 11.3158 307.476C12.2565 307.049 13.0867 306.407 13.7416 305.603C14.3966 304.798 14.8585 303.851 15.0915 302.837C15.3245 301.822 15.3222 300.767 15.0849 299.754C14.8475 298.74 14.3815 297.796 13.7231 296.994C13.0647 296.192 12.2318 295.555 11.2892 295.131C10.3466 294.708 9.31989 294.509 8.28901 294.552C7.25812 294.595 6.25095 294.877 5.34599 295.378L6.53292 298.663L4.09206 296.296C2.78049 297.503 1.99729 299.187 1.91443 300.977C1.88257 301.605 1.93896 302.234 2.08194 302.846C2.41396 304.284 3.20329 305.574 4.32935 306.516C5.45542 307.459 6.85632 308.004 8.31809 308.068Z" fill="#6FCF97"/>
<path opacity="0.1" d="M10.2325 288.102C11.7831 288.271 13.2907 288.759 14.8462 288.856C16.4016 288.953 18.1102 288.581 19.0961 287.358C19.6226 286.701 19.8906 285.871 20.3357 285.151C20.7608 284.482 21.3427 283.929 22.0299 283.542C22.4352 284.397 22.6579 285.329 22.6835 286.276C22.7091 287.224 22.5371 288.166 22.1786 289.042C21.8202 289.918 21.2832 290.709 20.6027 291.362C19.9221 292.015 19.1131 292.517 18.2282 292.834C17.3433 293.151 16.4021 293.277 15.4659 293.204C14.5296 293.13 13.6191 292.859 12.7934 292.407C11.9677 291.955 11.2453 291.334 10.6731 290.582C10.1008 289.831 9.69141 288.966 9.4715 288.044C9.72356 288.054 9.97722 288.073 10.2325 288.102Z" fill="black"/>
<path opacity="0.1" d="M8.31809 308.068C9.47653 308.128 10.6304 307.882 11.6668 307.357C12.7032 306.831 13.5866 306.042 14.2305 305.069C14.8745 304.095 15.257 302.969 15.3406 301.801C15.4242 300.633 15.206 299.464 14.7074 298.407C14.1744 298.768 13.7161 299.231 13.3577 299.769C12.8791 300.498 12.5872 301.344 12.0272 302.01C10.9791 303.252 9.19392 303.658 7.57147 303.585C5.94902 303.513 4.384 303.044 2.78548 302.894C2.56054 302.894 2.3356 302.861 2.10587 302.856C2.43856 304.288 3.22512 305.573 4.34622 306.513C5.46732 307.454 6.86179 308 8.31809 308.068Z" fill="black"/>
<path opacity="0.1" d="M24.6239 319.02C25.7716 319.078 26.915 318.838 27.9441 318.322C28.9732 317.806 29.8535 317.031 30.5005 316.073C31.1474 315.114 31.5392 314.004 31.6382 312.848C31.7372 311.693 31.5402 310.531 31.0659 309.474C30.5086 309.841 30.0221 310.308 29.6301 310.851C29.1084 311.595 28.783 312.455 28.1943 313.141C27.06 314.411 25.1552 314.86 23.4418 314.822C21.7284 314.783 20.173 314.373 18.5218 314.242C18.9263 315.577 19.7299 316.752 20.8223 317.608C21.9148 318.463 23.2427 318.956 24.6239 319.02Z" fill="black"/>
<path opacity="0.1" d="M21.3073 332.184C22.0339 333.823 23.376 335.104 25.0383 335.745C26.7006 336.385 28.5468 336.333 30.1709 335.599C31.795 334.866 33.0639 333.511 33.6985 331.833C34.333 330.155 34.2813 328.292 33.5546 326.653C33.0002 327.019 32.5033 327.466 32.0805 327.981C31.4392 328.764 31.018 329.657 30.281 330.397C28.9074 331.759 26.6915 332.329 24.7149 332.372C23.5763 332.378 22.4384 332.315 21.3073 332.184Z" fill="black"/>
<path d="M38.0822 342.179C38.0822 342.179 32.7793 342.015 31.1808 340.865C29.5822 339.715 23.0446 338.348 22.633 340.189C22.2214 342.029 14.6643 349.367 20.6468 349.396C26.6293 349.425 34.5549 348.459 36.1534 347.464C37.7519 346.469 38.0822 342.179 38.0822 342.179Z" fill="#656380"/>
<path opacity="0.2" d="M20.5415 348.759C26.5288 348.807 34.4496 347.792 36.0433 346.826C37.259 346.077 37.7424 343.401 37.9051 342.164H38.0822C38.0822 342.164 37.7472 346.483 36.1678 347.478C34.5884 348.474 26.6484 349.445 20.6612 349.411C18.9334 349.411 18.34 348.778 18.3735 347.86C18.5984 348.401 19.2541 348.744 20.5415 348.759Z" fill="black"/>
</g>
<defs>
<linearGradient id="paint0_linear" x1="185.838" y1="75.6822" x2="361.605" y2="273.113" gradientUnits="userSpaceOnUse">
<stop offset="0.24901" stop-color="#961696"/>
<stop offset="1" stop-color="#FC8B8B"/>
</linearGradient>
<linearGradient id="paint1_linear" x1="59.8201" y1="353.314" x2="59.8201" y2="126.138" gradientUnits="userSpaceOnUse">
<stop stop-color="#808080" stop-opacity="0.25"/>
<stop offset="0.54" stop-color="#808080" stop-opacity="0.12"/>
<stop offset="1" stop-color="#808080" stop-opacity="0.1"/>
</linearGradient>
<linearGradient id="paint2_linear" x1="116068" y1="191413" x2="116068" y2="74949.1" gradientUnits="userSpaceOnUse">
<stop stop-color="#808080" stop-opacity="0.25"/>
<stop offset="0.54" stop-color="#808080" stop-opacity="0.12"/>
<stop offset="1" stop-color="#808080" stop-opacity="0.1"/>
</linearGradient>
<clipPath id="clip0">
<rect width="492" height="357" fill="white"/>
</clipPath>
</defs>
</svg>
