<svg width="135" height="27" viewBox="0 0 135 27" fill="none" xmlns="http://www.w3.org/2000/svg">
<path opacity="0.8" d="M22.036 18.62C22.3 18.62 22.528 18.716 22.72 18.908C22.912 19.1 23.008 19.328 23.008 19.592V25.028C23.008 25.292 22.912 25.52 22.72 25.712C22.528 25.904 22.3 26 22.036 26H1.012C0.748 26 0.52 25.904 0.328 25.712C0.136 25.52 0.04 25.292 0.04 25.028V1.772C0.04 1.508 0.136 1.28 0.328 1.088C0.52 0.895998 0.748 0.799998 1.012 0.799998H8.788C9.052 0.799998 9.28 0.895998 9.472 1.088C9.664 1.28 9.76 1.508 9.76 1.772V18.62H22.036ZM42.9019 18.62H49.4179C49.6819 18.62 49.9099 18.716 50.1019 18.908C50.2939 19.1 50.3899 19.328 50.3899 19.592V25.028C50.3899 25.292 50.2939 25.52 50.1019 25.712C49.9099 25.904 49.6819 26 49.4179 26H26.5939C26.3299 26 26.1019 25.904 25.9099 25.712C25.7179 25.52 25.6219 25.292 25.6219 25.028V19.592C25.6219 19.328 25.7179 19.1 25.9099 18.908C26.1019 18.716 26.3299 18.62 26.5939 18.62H33.1819V8.18H26.5939C26.3299 8.18 26.1019 8.084 25.9099 7.892C25.7179 7.7 25.6219 7.472 25.6219 7.208V1.772C25.6219 1.508 25.7179 1.28 25.9099 1.088C26.1019 0.895998 26.3299 0.799998 26.5939 0.799998H49.4179C49.6819 0.799998 49.9099 0.895998 50.1019 1.088C50.2939 1.28 50.3899 1.508 50.3899 1.772V7.208C50.3899 7.472 50.2939 7.7 50.1019 7.892C49.9099 8.084 49.6819 8.18 49.4179 8.18H42.9019V18.62ZM77.4479 18.62C77.7119 18.62 77.9399 18.716 78.1319 18.908C78.3239 19.1 78.4199 19.328 78.4199 19.592V25.028C78.4199 25.292 78.3239 25.52 78.1319 25.712C77.9399 25.904 77.7119 26 77.4479 26H56.4239C56.1599 26 55.9319 25.904 55.7399 25.712C55.5479 25.52 55.4519 25.292 55.4519 25.028V1.772C55.4519 1.508 55.5479 1.28 55.7399 1.088C55.9319 0.895998 56.1599 0.799998 56.4239 0.799998H64.1999C64.4639 0.799998 64.6919 0.895998 64.8839 1.088C65.0759 1.28 65.1719 1.508 65.1719 1.772V18.62H77.4479ZM88.2338 24.776C87.9218 25.592 87.3818 26 86.6138 26H79.8098C79.5938 26 79.4018 25.928 79.2338 25.784C79.0898 25.616 79.0178 25.424 79.0178 25.208L79.0538 24.992L86.9018 1.988C86.9978 1.676 87.1778 1.4 87.4418 1.16C87.7058 0.919998 88.0658 0.799998 88.5218 0.799998H98.5298C98.9858 0.799998 99.3458 0.919998 99.6098 1.16C99.8738 1.4 100.054 1.676 100.15 1.988L107.998 24.992L108.034 25.208C108.034 25.424 107.95 25.616 107.782 25.784C107.638 25.928 107.458 26 107.242 26H100.438C99.6698 26 99.1298 25.592 98.8178 24.776L97.9178 22.256H89.1338L88.2338 24.776ZM93.5258 7.748L90.9698 15.236H96.0818L93.5258 7.748ZM117.812 16.28C117.812 17.264 118.136 18.02 118.784 18.548C119.456 19.076 120.356 19.34 121.484 19.34C122.492 19.34 123.236 19.172 123.716 18.836C124.196 18.5 124.604 17.996 124.94 17.324C125.252 16.7 125.672 16.388 126.2 16.388H133.976C134.192 16.388 134.372 16.472 134.516 16.64C134.684 16.784 134.768 16.964 134.768 17.18C134.768 18.644 134.276 20.084 133.292 21.5C132.308 22.892 130.808 24.056 128.792 24.992C126.8 25.904 124.364 26.36 121.484 26.36C118.916 26.36 116.624 25.976 114.608 25.208C112.616 24.416 111.032 23.216 109.856 21.608C108.68 19.976 108.092 17.948 108.092 15.524V11.276C108.092 8.852 108.68 6.836 109.856 5.228C111.032 3.596 112.616 2.396 114.608 1.628C116.624 0.835999 118.916 0.439999 121.484 0.439999C124.364 0.439999 126.8 0.907999 128.792 1.844C130.808 2.756 132.308 3.92 133.292 5.336C134.276 6.728 134.768 8.156 134.768 9.62C134.768 9.836 134.684 10.028 134.516 10.196C134.372 10.34 134.192 10.412 133.976 10.412H126.2C125.672 10.412 125.252 10.1 124.94 9.476C124.604 8.804 124.196 8.3 123.716 7.964C123.236 7.628 122.492 7.46 121.484 7.46C120.356 7.46 119.456 7.724 118.784 8.252C118.136 8.78 117.812 9.536 117.812 10.52V16.28Z" fill="#FEFEFE"/>
</svg>
